<?xml version="1.0" encoding="UTF-8"?>
<svg width="90px" height="150px" viewBox="0 0 90 150" version="1.1" xmlns="http://www.w3.org/2000/svg" xmlns:xlink="http://www.w3.org/1999/xlink">
    <!-- Generator: Sketch 46.2 (44496) - http://www.bohemiancoding.com/sketch -->
    <title>Page 1</title>
    <desc>Created with Sketch.</desc>
    <defs></defs>
    <g id="Welcome" stroke="none" stroke-width="1" fill="none" fill-rule="evenodd" stroke-linecap="round" stroke-linejoin="round">
        <g id="1.-HOME-" transform="translate(-797.000000, -901.000000)" stroke="#ff7224" stroke-width="4.5">
            <g id="Group-6" transform="translate(263.000000, 898.000000)">
                <path d="M548.342602,149.335029 C549.043461,149.784676 549.835094,150 550.618282,150 C551.832118,150 553.0354,149.476467 553.860809,148.486399 L620.811806,68.3373044 C621.863094,67.0791365 622.091084,65.4515401 621.394448,63.9674931 C620.699922,62.4855571 619.209542,61.6622593 617.573502,61.6622593 L590.917653,61.6622593 L615.850909,11.460094 C616.790313,9.57495317 616.199228,7.22749899 614.463969,6.03477272 C612.7266,4.84204645 610.381257,5.07848068 608.962651,6.63008035 L538.108378,83.9060765 C536.976871,85.1410232 536.683439,87.0430521 537.358966,88.5756526 C538.03027,90.1082531 539.550204,91.2165386 541.224243,91.2165386 L572.11902,91.2165386 L546.810002,144.089144 C545.89593,146.008061 546.548236,148.184523 548.342602,149.335029 Z" id="Page-1"></path>
            </g>
        </g>
    </g>
</svg>