<?xml version="1.0" encoding="UTF-8"?>
<svg width="154px" height="155px" viewBox="0 0 154 155" version="1.1" xmlns="http://www.w3.org/2000/svg" xmlns:xlink="http://www.w3.org/1999/xlink">
    <!-- Generator: Sketch 46.2 (44496) - http://www.bohemiancoding.com/sketch -->
    <title>Money icon</title>
    <desc>Created with Sketch.</desc>
    <defs></defs>
    <g id="Welcome" stroke="none" stroke-width="1" fill="none" fill-rule="evenodd">
        <g id="1.-HOME-" transform="translate(-778.000000, -1515.000000)" fill="#ff7224">
            <g id="Group-6-Copy" transform="translate(263.000000, 1515.000000)">
                <g id="Money-icon" transform="translate(515.000000, 0.000000)">
                    <path d="M52.1868787,128.877699 L26.1498113,102.963589 L47.3819699,81.8329305 L97.978431,81.8329305 C97.5970469,84.4112232 96.4175669,86.7989793 94.5493922,88.7069915 C92.3325017,90.9722598 89.4151407,92.2897598 86.2694809,92.4640402 L70.9632119,92.4640402 L70.9632119,92.4859671 L61.1106607,92.4859671 L75.0144692,106.321796 C78.9954514,110.28526 84.2900059,112.468113 89.9211205,112.468113 L114.679183,112.468113 L133.010695,94.2242354 C135.056646,92.1876866 137.777997,91.0652598 140.672946,91.0652598 C142.803987,91.0652598 144.841202,91.6739183 146.584781,92.8080646 L114.723628,124.515394 L56.5686183,124.515394 L52.1868787,128.877699 Z M39.623233,148.533211 L6.34632389,115.414248 L19.3301,102.49254 L19.8034114,102.963589 L19.7916356,102.975309 L52.1751029,135.203967 L52.1868787,135.192248 L52.6081487,135.61037 L39.623233,148.533211 Z M99.882313,90.0566256 L100.98468,90.2059549 L112.454696,78.7892598 C114.472917,76.7810646 117.07689,75.78415 119.507644,75.853711 C117.72228,76.5946866 116.050115,77.6861134 114.599032,79.1302598 L101.201203,92.4640402 L97.1013234,92.4640402 C97.326963,92.2572476 97.5480443,92.0428939 97.7630477,91.8228695 C98.3317052,91.2410524 98.8509803,90.6267232 99.3242917,89.9844183 C99.6714881,90.02865 99.8762352,90.0554915 99.882313,90.0566256 L99.882313,90.0566256 Z M130.149554,80.2069427 C128.6168,80.9320402 127.179012,81.9244183 125.910264,83.185589 L108.894983,100.12104 L99.0823179,100.12104 L99.0823179,104.586552 L110.752902,104.586552 L129.084413,86.3441866 C132.764163,82.6805159 138.457575,82.2079549 142.65698,84.929528 L140.97152,86.6069305 C140.871995,86.6042841 140.772471,86.5997476 140.671427,86.5997476 C136.579144,86.5997476 132.729975,88.1856622 129.836545,91.066772 L112.819746,108.000711 L89.919601,108.000711 C85.4873395,108.000711 81.3206034,106.283235 78.1867194,103.164333 L71.9444025,96.9518573 L85.5526762,96.9518573 C85.8436526,96.9518573 86.1327296,96.9442963 86.4206671,96.9295524 L103.059122,96.9295524 L117.771282,82.2877232 C121.114472,78.962028 126.115011,78.2694427 130.149554,80.2069427 L130.149554,80.2069427 Z M116.582686,128.980906 L153.094523,92.6455037 L151.508208,91.0652598 C149.990268,89.556089 148.209462,88.4056866 146.270253,87.6480768 L149.168241,84.7639427 L147.581926,83.185589 C144.372449,79.9914549 140.081117,78.5159305 135.869937,78.752211 C133.470331,76.528528 130.523721,75.2125402 127.475686,74.808028 L127.570652,74.71465 C122.782458,69.9493451 114.57662,70.359528 109.279406,75.6321744 L102.415251,82.46465 C102.554661,81.5062963 102.616959,80.5286622 102.591508,79.5408207 L102.533769,77.3659061 L45.522912,77.3659061 L22.9756617,99.8049915 L19.3301,96.1764793 L-7.59729439e-05,115.414248 L39.623233,154.849272 L58.9530291,135.611504 L55.3606485,132.035162 L58.4276762,128.980906 L116.582686,128.980906 Z" id="Fill-1"></path>
                    <polygon id="Fill-4" points="91.1303059 104.585305 95.1709269 104.585305 95.1709269 100.119415 91.1303059 100.119415"></polygon>
                    <path d="M19.7157007,116.551267 C19.3893969,116.874499 18.9559712,117.053316 18.4959551,117.053316 C18.0359389,117.053316 17.6028931,116.874499 17.2777289,116.551267 C16.9529446,116.228035 16.7732686,115.796682 16.7732686,115.338865 C16.7732686,114.879535 16.9529446,114.449694 17.2777289,114.12495 C17.6044126,113.801718 18.0359389,113.622901 18.4974745,113.622901 C18.9574907,113.622901 19.3893969,113.801718 19.7157007,114.12495 C20.3865418,114.79523 20.3865418,115.882121 19.7157007,116.551267 M22.8883308,110.967487 C21.7145488,109.801206 20.1552041,109.157011 18.4959551,109.157011 C16.8370858,109.157011 15.2777412,109.801206 14.1039592,110.967487 C12.9316966,112.135657 12.284787,113.687926 12.284787,115.338865 C12.284787,116.989804 12.9316966,118.542072 14.1039592,119.709865 C15.2777412,120.876523 16.8370858,121.520718 18.4959551,121.520718 C20.1552041,121.520718 21.7145488,120.876523 22.8883308,119.709865 C25.3099684,117.29867 25.3099684,113.377548 22.8883308,110.967487" id="Fill-6"></path>
                    <path d="M84.9590996,55.6336963 C76.2446231,55.6336963 69.154828,48.5777939 69.154828,39.9049768 C69.154828,31.2317817 76.2446231,24.1773915 84.9590996,24.1773915 C93.6735761,24.1773915 100.762232,31.2317817 100.762232,39.9049768 C100.762232,48.5777939 93.6735761,55.6336963 84.9590996,55.6336963 M84.9590996,19.7103671 C73.7694246,19.7103671 64.667486,28.7703061 64.667486,39.9049768 C64.667486,51.0411598 73.7694246,60.0995866 84.9590996,60.0995866 C96.1472552,60.0995866 105.250713,51.0411598 105.250713,39.9049768 C105.250713,28.7687939 96.1472552,19.7103671 84.9590996,19.7103671" id="Fill-7"></path>
                    <path d="M89.1687984,38.8725634 C88.4713668,38.5361 87.7234131,38.2850756 86.9253174,38.1164659 C86.1253223,37.9482341 85.3777485,37.7800024 84.6803169,37.6113927 C83.9828853,37.4446732 83.402452,37.226161 82.9409163,36.9573683 C82.4797606,36.6885756 82.2495625,36.2632707 82.2495625,35.6799415 C82.2495625,35.0981244 82.4797606,34.7068439 82.9409163,34.5045878 C83.402452,34.3019537 83.9589538,34.2017707 84.6119412,34.2017707 C86.8345297,34.2017707 88.6704159,34.8958683 90.1139018,36.2851976 L90.1139018,32.4222951 C89.5752537,31.8283805 88.2578828,31.3913561 86.1655879,31.1108439 L86.1655879,27.2475634 C86.1655879,27.1810268 86.1196243,27.1473805 86.0303561,27.1473805 L83.0940018,27.1473805 C83.003594,27.1473805 82.95877,27.1931244 82.95877,27.2815878 L82.95877,31.0783317 C82.2613383,31.3369171 81.5566893,31.7134537 80.8490013,32.212478 C80.139414,32.7099902 79.6334342,33.2566488 79.3295424,33.8501854 C79.0252708,34.443722 78.8737048,35.1820512 78.8737048,36.0666854 C78.8737048,36.9513195 79.1054223,37.7074171 79.5654384,38.334978 C80.3829073,39.4456854 81.7169922,40.2074537 83.5657938,40.6195268 L85.8271285,41.1230878 C86.5200017,41.2780878 87.0989155,41.473161 87.5631102,41.7094415 C88.0261653,41.945722 88.2578828,42.3003317 88.2578828,42.7698683 C88.2578828,43.6087585 87.7218937,44.1920878 86.6506752,44.5168317 C86.2085126,44.651039 85.5289347,44.7190878 84.6134607,44.7190878 C83.3298978,44.7190878 82.1709305,44.4162707 81.1365589,43.8110146 C80.1010477,43.2068927 79.3132083,42.3664902 78.7730406,41.2916976 L78.7730406,45.8267707 C80.1679039,46.6713317 81.6087308,47.309478 83.0940018,47.7419659 L83.1266702,51.168222 C83.1281896,51.2358927 83.1619976,51.2699171 83.2288538,51.2699171 L86.1655879,51.2699171 C86.2559957,51.2699171 86.3004399,51.2241732 86.3004399,51.1357098 L86.3004399,47.9767341 C88.2130588,47.3431244 89.6155193,46.464539 90.5070618,45.3436244 C91.2356423,44.4268561 91.5991729,43.5244537 91.5991729,42.6352829 C91.5991729,40.9060878 90.7893013,39.652478 89.1687984,38.8725634" id="Fill-8"></path>
                    <path d="M38.2254068,60.8261585 L131.69302,60.8261585 L131.69302,18.9852317 L38.2254068,18.9852317 L38.2254068,60.8261585 Z M33.7365454,53.3623415 L30.3329576,53.3623415 L30.3329576,11.5217927 L123.800191,11.5217927 L123.800191,14.5178293 L33.7365454,14.5178293 L33.7365454,53.3623415 Z M25.8456156,46.306439 L21.4015783,46.306439 L21.4015783,4.4655122 L114.869192,4.4655122 L114.869192,7.05590244 L25.8456156,7.05590244 L25.8456156,46.306439 Z M128.289053,14.5193415 L128.289053,7.05590244 L119.357673,7.05590244 L119.357673,0 L16.9142363,0 L16.9142363,50.7723293 L25.8456156,50.7723293 L25.8456156,57.8282317 L33.7365454,57.8282317 L33.7365454,65.2916707 L136.179982,65.2916707 L136.179982,14.5193415 L128.289053,14.5193415 Z" id="Fill-9"></path>
                    <polygon id="Fill-10" points="25.8456156 76.8977683 30.3340971 76.8977683 30.3340971 72.0228293 25.8456156 72.0228293"></polygon>
                    <polygon id="Fill-11" points="82.7140231 141.997768 87.2021248 141.997768 87.2021248 137.122451 82.7140231 137.122451"></polygon>
                    <polygon id="Fill-12" points="135.663746 125.512195 140.152228 125.512195 140.152228 120.636122 135.663746 120.636122"></polygon>
                    <polygon id="Fill-13" points="128.618395 149.310744 133.106877 149.310744 133.106877 144.435427 128.618395 144.435427"></polygon>
                    <polygon id="Fill-14" points="5.94298353 31.0710732 10.4299456 31.0710732 10.4299456 26.1961341 5.94298353 26.1961341"></polygon>
                    <polygon id="Fill-15" points="2.2879252 69.1235732 6.77488727 69.1235732 6.77488727 64.2475 2.2879252 64.2475"></polygon>
                </g>
            </g>
        </g>
    </g>
</svg>