<?xml version="1.0" encoding="UTF-8"?>
<svg width="138px" height="156px" viewBox="0 0 138 156" version="1.1" xmlns="http://www.w3.org/2000/svg" xmlns:xlink="http://www.w3.org/1999/xlink">
    <!-- Generator: Sketch 46.2 (44496) - http://www.bohemiancoding.com/sketch -->
    <title>Target icon</title>
    <desc>Created with Sketch.</desc>
    <defs></defs>
    <g id="Welcome" stroke="none" stroke-width="1" fill="none" fill-rule="evenodd">
        <g id="1.-HOME-" transform="translate(-254.000000, -588.000000)" fill="#ff7224">
            <g id="Group-2" transform="translate(254.000000, 588.000000)">
                <g id="Target-icon">
                    <path d="M51.3057096,13.4016002 C44.6472838,15.230258 38.4254514,18.1925779 32.8137206,22.2096604 L35.3967728,25.8416828 C40.5820723,22.1315159 46.3292975,19.3945693 52.4807481,17.7059677 L51.3057096,13.4016002 Z" id="Fill-1"></path>
                    <path d="M26.2272574,27.6937085 C24.856881,29.014993 23.5320459,30.4219723 22.2926475,31.8746302 L25.6713536,34.7765486 C26.818164,33.432991 28.0428838,32.1324695 29.3101338,30.9100925 L26.2272574,27.6937085 Z" id="Fill-3"></path>
                    <path d="M117.01249,90.9518664 C114.408738,97.2543936 110.70221,102.952528 105.994905,107.885071 L109.20876,110.971592 C114.29846,105.636245 118.307592,99.4752841 121.121361,92.6593435 L117.01249,90.9518664 Z" id="Fill-5"></path>
                    <path d="M120.341063,79.4495938 C120.082495,80.9434003 119.757308,82.4447571 119.373783,83.9117604 L123.676863,85.0416474 C124.091627,83.4530859 124.442783,81.8282835 124.723934,80.2121637 L120.341063,79.4495938 Z" id="Fill-7"></path>
                    <path d="M129.501855,67.6012417 L105.513819,67.6012417 C104.892066,58.8178251 101.334342,50.8355154 95.8238322,44.6344105 L107.239484,33.1858091 L117.393522,33.1858091 C124.80815,43.271734 128.965366,55.1104824 129.501855,67.6012417 L129.501855,67.6012417 Z M69.0284769,133.075934 L69.0284769,109.037807 C88.8177954,108.011921 104.712105,91.9644284 105.574183,72.0726066 L129.538828,72.0726066 C128.65449,105.21202 102.025514,132.022045 69.0284769,133.075934 L69.0284769,133.075934 Z M81.0775773,141.788209 L67.015326,141.788209 L67.015326,146.261466 L81.0775773,146.261466 L81.0775773,150.904253 L52.9526973,150.904253 L52.9526973,136.107804 C57.5230328,137.081847 62.2284334,137.584384 67.0107986,137.584384 C71.7961821,137.584384 76.5046009,137.080334 81.0775773,136.104777 L81.0775773,141.788209 Z M4.48314678,72.0726066 L28.4474143,72.0726066 C29.3038335,91.8225223 44.9770583,107.77806 64.5690609,109.010939 L64.5690609,133.059662 C31.7678306,131.790076 5.36295711,105.070114 4.48314678,72.0726066 L4.48314678,72.0726066 Z M64.5690609,7.68434675 L64.5690609,31.7326912 C45.3320761,32.9436228 29.8727674,48.3478079 28.5077787,67.599728 L4.52276089,67.599728 C5.93905932,35.0987026 32.1232256,8.94068827 64.5690609,7.68434675 L64.5690609,7.68434675 Z M68.5878171,71.9530271 L70.4330797,70.1021938 C70.440248,70.1922569 70.4477935,70.2811847 70.4477935,70.3727614 C70.4477935,72.2720319 68.9047299,73.8182401 67.0107986,73.8182401 C65.1157355,73.8182401 63.574181,72.2720319 63.574181,70.3727614 C63.574181,68.4715988 65.1157355,66.9253905 67.0107986,66.9253905 C67.1020997,66.9253905 67.1907598,66.9329588 67.2790427,66.9390135 L65.4341574,68.790982 L68.5878171,71.9530271 Z M69.0284769,45.3291825 L69.0284769,36.186649 C76.8509414,36.6464246 83.9720476,39.7592756 89.5134945,44.6389515 L70.7880975,63.4208788 C69.6649434,62.8044389 68.3784283,62.4525119 67.0092895,62.4525119 C62.6558884,62.4525119 59.1147651,66.0062177 59.1147651,70.3727614 C59.1147651,74.739305 62.6558884,78.2914971 67.0092895,78.2914971 C71.3641997,78.2914971 74.9057004,74.739305 74.9057004,70.3727614 C74.9057004,69.0010029 74.5548326,67.7090903 73.9417572,66.5825455 L92.6656451,47.8021318 C97.3759504,53.181317 100.435291,60.0488127 101.040821,67.6012417 L91.2316146,67.6012417 L91.2316146,72.0726066 L101.111749,72.0726066 C100.256839,89.4975337 86.3583256,103.538664 69.0269677,104.55736 L69.0269677,94.3442874 L64.5675518,94.3442874 L64.5675518,104.530493 C47.4350189,103.309722 33.7560812,89.3556276 32.9087167,72.0726066 L42.3640367,72.0726066 L42.3640367,67.6012417 L32.9777584,67.6012417 C34.3246378,50.8162162 47.790414,37.4089331 64.5675518,36.2131381 L64.5675518,45.3291825 L69.0284769,45.3291825 Z M69.0284769,7.66656119 C81.7483761,8.06692544 93.8284133,12.2518293 104.085825,19.83491 L104.085825,30.0226288 L92.6701724,41.4712301 C86.3138069,35.78742 78.0786012,32.1746813 69.0284769,31.7046884 L69.0284769,7.66656119 Z M108.543731,17.6635583 L115.393575,10.7941704 L115.393575,18.6803624 L112.216525,21.867383 L115.370184,25.0294281 L118.546103,21.8439212 L126.410068,21.8439212 L119.561356,28.7129306 L108.543731,28.7129306 L108.543731,17.6635583 Z M137.143226,17.403208 L133.990698,14.2400276 L130.867975,17.3706642 L123.005519,17.3706642 L125.597791,14.770567 L122.44564,11.6073867 L119.85186,14.2089975 L119.85186,6.32129188 L122.625224,3.54069022 L119.471564,0.377509866 L104.937716,14.9552341 C93.7533351,7.23176107 80.6916228,3.15962519 67.0107986,3.15962519 C49.1108841,3.15962519 32.2835684,10.1497278 19.6270517,22.8444534 C6.97091234,35.5406927 -3.76373628e-05,52.4184301 -3.76373628e-05,70.3727614 C-3.76373628e-05,88.3252006 6.97091234,105.203316 19.6270517,117.899177 C27.7901975,126.086967 37.6907046,131.897925 48.4932814,134.994504 L48.4932814,155.37751 L85.5373706,155.37751 L85.5373706,134.99299 C96.33542,131.894897 106.232909,126.085453 114.394546,117.899177 C127.051062,105.203316 134.021635,88.3252006 134.021635,70.3727614 C134.021635,56.6430677 129.963265,43.5464641 122.261529,32.3298319 L137.143226,17.403208 Z" id="Fill-9"></path>
                </g>
            </g>
        </g>
    </g>
</svg>