<?xml version="1.0" encoding="UTF-8"?>
<svg width="156px" height="156px" viewBox="0 0 156 156" version="1.1" xmlns="http://www.w3.org/2000/svg" xmlns:xlink="http://www.w3.org/1999/xlink">
    <!-- Generator: Sketch 46.2 (44496) - http://www.bohemiancoding.com/sketch -->
    <title>Professional icon</title>
    <desc>Created with Sketch.</desc>
    <defs></defs>
    <g id="Welcome" stroke="none" stroke-width="1" fill="none" fill-rule="evenodd">
        <g id="1.-HOME-" transform="translate(-253.000000, -1205.000000)" fill="#ff7224">
            <g id="Group-7" transform="translate(253.000000, 1205.000000)">
                <path d="M142.519548,151.072465 L110.491716,151.072465 L110.491716,142.494412 C110.491716,139.279213 109.782179,136.578933 108.695973,134.349012 L114.447683,132.096621 L119.383978,136.904947 C119.843673,137.352835 120.459519,137.602678 121.102407,137.602678 L121.140873,137.602678 C121.795567,137.592014 122.420555,137.321605 122.875679,136.849722 L127.538137,132.010166 L136.808209,135.726574 C136.852769,135.744474 136.876763,135.753234 136.921324,135.76961 C137.148696,135.849971 142.519548,137.840714 142.519548,144.707956 L142.519548,151.072465 Z M107.187397,110.020215 L107.187397,113.447932 C106.623727,113.084975 106.248964,112.452752 106.248964,111.734074 C106.248964,111.015395 106.623727,110.383172 107.187397,110.020215 L107.187397,110.020215 Z M105.827735,130.180526 C103.783673,127.996309 101.477581,126.670924 99.8082822,126.095068 L87.0689792,120.984722 L87.0689792,118.458494 C90.5652511,116.51574 93.2266835,113.25141 94.382586,109.346097 C98.7418811,109.225746 102.251483,105.644924 102.251483,101.257445 C102.251483,98.6287665 100.989702,96.288397 99.0423777,94.8083847 L99.0423777,89.0357274 C99.0423777,85.9709669 98.3503596,83.0657858 97.1217133,80.4622438 L119.053774,80.4622438 C119.02102,82.129638 118.955513,83.7932237 118.861822,85.4446219 C110.47991,86.2760338 103.913164,93.3649347 103.913164,101.96127 L103.913164,106.320184 C102.332987,107.598342 101.321429,109.550237 101.321429,111.734074 C101.321429,115.416204 104.194237,118.433357 107.816954,118.677106 C108.797281,121.680929 110.85772,124.19954 113.541623,125.773624 L113.541623,127.160326 L105.827735,130.180526 Z M79.6022676,115.468382 L76.7934434,115.468382 C71.0089794,115.468382 66.3050083,110.764029 66.3050083,104.979946 L66.3050083,96.2842076 C70.2354578,95.922393 78.0087597,94.5551145 83.6858218,89.4584792 C84.8851422,91.725724 86.8934038,94.3589729 90.0907027,95.7247279 L90.0907027,104.979946 C90.0907027,110.764029 85.3863507,115.468382 79.6022676,115.468382 L79.6022676,115.468382 Z M82.1433489,122.689821 L82.1433489,122.849019 L78.1085444,127.036929 L74.2508386,123.28015 L74.2508386,120.181493 C75.0780611,120.319745 75.9273734,120.394012 76.7934434,120.394012 L79.6022676,120.394012 C80.4679567,120.394012 81.3161264,120.319745 82.1433489,120.181493 L82.1433489,122.689821 Z M49.1393792,113.394231 L49.1393792,110.073916 C49.6588689,110.444109 49.997832,111.049673 49.997832,111.734074 C49.997832,112.418475 49.6588689,113.024038 49.1393792,113.394231 L49.1393792,113.394231 Z M69.3248275,120.971392 L56.2522742,126.090498 C54.587546,126.663307 52.2829771,127.984502 50.2389148,130.16415 L42.7840098,127.17518 L42.7840098,125.773624 C45.4679128,124.19954 47.5298753,121.679406 48.5102026,118.672917 C52.0940718,118.388797 54.9253666,115.389544 54.9253666,111.734074 C54.9253666,109.56052 53.9225687,107.617385 52.3576252,106.338084 L52.3576252,101.96127 C52.3576252,93.2712438 45.6465349,86.1259759 37.1351312,85.4236747 C37.0414402,83.7798937 36.9759327,82.1224017 36.9447024,80.4622438 L59.2054433,80.4622438 C57.9752736,83.0657858 57.2847789,85.9709669 57.2847789,89.0357274 L57.2847789,94.7828673 C55.3165072,96.2602136 54.0417771,98.6123896 54.0417771,101.257445 C54.0417771,105.67882 57.6062226,109.28097 62.0112206,109.349144 C63.1671232,113.252933 65.8304598,116.51574 69.3248275,118.458494 L69.3248275,120.971392 Z M45.5600803,142.494412 L45.5600803,151.072465 L13.5337718,151.072465 L13.5337718,144.707956 C13.5337718,137.840714 18.9015776,135.849971 19.1099067,135.775704 C19.1483733,135.763898 19.1872208,135.750568 19.2245448,135.735333 L28.5136596,132.096621 L33.4514773,136.904947 C33.9111723,137.352835 34.5270189,137.602678 35.1699064,137.602678 L35.208373,137.602678 C35.8630671,137.592014 36.4880543,137.321605 36.943179,136.849722 L41.6056367,132.010166 L47.3691535,134.320829 C46.2757115,136.558366 45.5600803,139.267406 45.5600803,142.494412 L45.5600803,142.494412 Z M21.2537536,110.020215 L21.2537536,113.447932 C20.6897037,113.084975 20.3149399,112.452752 20.3149399,111.734074 C20.3149399,111.015395 20.6897037,110.383172 21.2537536,110.020215 L21.2537536,110.020215 Z M4.97209486,80.4622438 L32.0171679,80.4622438 C32.0483982,82.1597258 32.1139057,83.8541609 32.2075966,85.5337425 C24.1756925,86.6896451 17.9821876,93.6136347 17.9821876,101.96127 L17.9821876,106.320184 C16.4020098,107.598342 15.3889288,109.548713 15.3889288,111.734074 C15.3889288,115.416204 18.2632604,118.431834 21.8844537,118.675583 C22.8647809,121.680929 24.9267435,124.19954 27.609123,125.773624 L27.609123,127.160326 L24.9179838,128.213397 C12.5907686,115.188451 5.56394744,98.3297933 4.97209486,80.4622438 L4.97209486,80.4622438 Z M42.6590886,98.0902339 C42.4446658,97.1453264 41.6978042,96.4148417 40.7502307,96.2213661 C39.8011338,96.0267479 38.8265194,96.406082 38.2613268,97.1898868 C33.7965342,103.359779 23.8451082,103.427952 23.7262806,103.427952 L23.7171401,103.427952 C23.6325897,103.427952 23.5491819,103.432522 23.4657741,103.440139 C23.4406375,103.442805 23.41512,103.448899 23.3899834,103.451946 C23.3336165,103.459182 23.2768688,103.466799 23.2220253,103.477083 C23.1877481,103.4847 23.1534709,103.494983 23.1176703,103.504124 C23.0746334,103.51593 23.0300731,103.52469 22.9866553,103.53802 C22.9599953,103.545637 22.9348587,103.557444 22.9093413,103.566584 L22.9093413,101.96127 C22.9093413,95.5236351 28.1446087,90.2883677 34.5822433,90.2883677 L35.7606164,90.2883677 C42.1963467,90.2883677 47.4331375,95.5236351 47.4331375,101.96127 L47.4331375,103.54716 L47.4316141,103.54716 C47.3840069,103.530784 47.3363997,103.5205 47.2872691,103.50679 C47.2663219,103.5026 47.2442322,103.49346 47.223285,103.488889 C43.7898545,102.708131 42.6663249,98.1245111 42.6590886,98.0902339 L42.6590886,98.0902339 Z M36.3212387,122.603366 L34.0734176,122.603366 C29.7217396,122.603366 26.1809073,119.062534 26.1809073,114.710856 L26.1809073,108.196288 C29.3884893,107.849708 35.0701217,106.726178 39.4515066,103.066518 C40.4318338,104.749147 41.949551,106.568503 44.213749,107.630715 L44.213749,114.710856 C44.213749,119.062534 40.6729166,122.603366 36.3212387,122.603366 L36.3212387,122.603366 Z M32.5351341,127.434163 C33.0409129,127.4951 33.5527854,127.529377 34.0734176,127.529377 L36.3212387,127.529377 C36.8403475,127.529377 37.3537434,127.4951 37.8579987,127.434163 L37.8579987,128.799918 L35.1146821,131.647209 L32.5351341,129.135834 L32.5351341,127.434163 Z M16.6640397,38.3253109 C22.2131337,40.5940791 28.9676418,42.5086499 36.5326146,44.0115136 C33.7683507,53.7515637 32.2182607,64.4468045 32.0186913,75.5362327 L4.97209486,75.5362327 C5.42874302,61.8535456 9.66121259,49.1127192 16.6640397,38.3253109 L16.6640397,38.3253109 Z M57.8339754,7.75844845 C53.1357171,11.6146308 48.8240292,16.8544685 45.0763912,23.3572297 C42.2900376,28.1895499 39.9199613,33.5451682 37.9920606,39.2892613 C31.0147509,37.9280765 24.7660217,36.2066006 19.5619846,34.1758683 C28.9958252,21.6285174 42.371922,12.2038174 57.8339754,7.75844845 L57.8339754,7.75844845 Z M75.5362327,5.06273895 L75.5362327,42.8510408 C63.9916797,42.7333558 52.8378865,41.794542 42.8910308,40.1656144 C44.6703971,34.9973779 46.8306209,30.1799112 49.3446614,25.8179501 C56.5127807,13.3821905 65.7352454,6.11009712 75.5362327,5.06273895 L75.5362327,5.06273895 Z M61.3774737,98.1854483 L61.3774737,104.329823 C59.9968652,103.988955 58.9689308,102.742408 58.9689308,101.257445 C58.9689308,99.7728624 59.9968652,98.5274584 61.3774737,98.1854483 L61.3774737,98.1854483 Z M36.9447024,75.5362327 C37.1469378,64.7217836 38.6734147,54.3198031 41.3946416,44.9011968 C51.8011924,46.6489519 63.4782838,47.65632 75.5362327,47.7781944 L75.5362327,68.9843409 C70.3721857,69.4676491 65.7706652,71.9062798 62.4785328,75.5526096 C62.3878887,75.5438499 62.2968638,75.5362327 62.2046963,75.5362327 L36.9447024,75.5362327 Z M78.8999663,73.8193271 C87.2906382,73.8193271 94.1163666,80.6450554 94.1163666,89.0357274 L94.1163666,92.0456443 C94.0999897,92.0319334 94.0820894,92.0216503 94.0657126,92.0083203 C94.0302928,91.9801368 93.9944922,91.9530959 93.9556447,91.9264359 C93.9274613,91.9070122 93.8977544,91.8879693 93.8680475,91.870069 C93.8307235,91.846075 93.7933994,91.8224618 93.7564563,91.8015146 C93.7206557,91.7820909 93.6848551,91.7641906 93.6494353,91.7462903 C93.6136347,91.7287709 93.5793575,91.712394 93.5450803,91.6960171 C93.5020434,91.6765934 93.4574831,91.6602165 93.4129228,91.6438396 C93.3813116,91.632033 93.3516047,91.6198456 93.3203744,91.6095625 C93.2701012,91.5931856 93.2194472,91.581379 93.1687931,91.568049 C93.1463225,91.5604318 93.1242328,91.5531955 93.1002388,91.5486253 C88.4214042,90.4833668 86.9394876,84.3835528 86.9261576,84.3302328 C86.7136391,83.3868487 85.9667775,82.6548406 85.0176806,82.4617458 C84.0697262,82.2667467 83.0954927,82.6460808 82.5283959,83.431409 C76.7606896,91.4058037 64.0183398,91.4861646 63.8500007,91.4861646 L63.841241,91.4861646 C63.7563098,91.4861646 63.6717594,91.4907349 63.589875,91.4994946 C63.5643576,91.5025415 63.539221,91.5071118 63.512561,91.5113012 C63.4573366,91.5189184 63.4009697,91.5246312 63.3457454,91.5368187 C63.3099448,91.544055 63.2760485,91.554719 63.2417713,91.5634787 C63.197211,91.5737618 63.1522698,91.5844259 63.1107563,91.5977559 C63.0707663,91.6095625 63.0319188,91.6259393 62.9930713,91.6392693 C62.9576516,91.6525994 62.9203275,91.6647868 62.8845269,91.6796402 C62.8399666,91.6986831 62.7969297,91.7211537 62.7538928,91.7421009 C62.7253285,91.7554309 62.697145,91.7672375 62.670485,91.7820909 C62.6259247,91.8060849 62.5840304,91.8342684 62.5409935,91.859405 C62.5169994,91.8757819 62.4918628,91.8891119 62.4667262,91.9054887 C62.4278788,91.9325296 62.3890313,91.9622365 62.3520881,91.9919434 C62.3265707,92.0098437 62.3014341,92.027744 62.2778209,92.0471677 C62.2553503,92.0646872 62.2328797,92.0871578 62.21079,92.1065815 L62.21079,89.0357274 C62.21079,80.6450554 69.0365184,73.8193271 77.4271903,73.8193271 L78.8999663,73.8193271 Z M80.4622438,5.06273895 C90.2647546,6.11009712 99.4872193,13.3821905 106.654958,25.8179501 C109.170522,30.1814347 111.330745,35.0015674 113.111635,40.1728507 C103.179633,41.7991123 92.0349803,42.7348792 80.4622438,42.8510408 L80.4622438,5.06273895 Z M97.325472,101.257445 C97.325472,102.706608 96.3466682,103.928018 95.0163329,104.304305 L95.0163329,98.2105849 C96.3466682,98.5868721 97.325472,99.8082822 97.325472,101.257445 L97.325472,101.257445 Z M119.053774,75.5362327 L93.8440535,75.5362327 L93.8368172,75.5362327 C90.4761305,71.8213485 85.7523547,69.3682453 80.4622438,68.9588234 L80.4622438,47.7781944 C92.5498997,47.6578435 104.213661,46.6519988 114.606882,44.9053862 C117.326585,54.3243734 118.850777,64.723307 119.053774,75.5362327 L119.053774,75.5362327 Z M139.35805,38.3135043 C146.493416,49.3359017 150.578493,62.1673722 151.026382,75.5362327 L123.980928,75.5362327 C123.780216,64.4498513 122.231268,53.756134 119.468909,44.0172265 C127.041118,42.5132202 133.794103,40.5895088 139.35805,38.3135043 L139.35805,38.3135043 Z M135.07188,113.394231 L135.07188,110.075058 C135.589846,110.445633 135.930332,111.049673 135.930332,111.734074 C135.930332,112.418475 135.589846,113.024038 135.07188,113.394231 L135.07188,113.394231 Z M109.658781,103.427952 L109.64964,103.427952 C109.56509,103.427952 109.481682,103.432522 109.398274,103.440139 C109.371614,103.442805 109.346097,103.448899 109.319437,103.451946 C109.264593,103.459182 109.207846,103.466799 109.154526,103.477083 C109.117202,103.4847 109.081401,103.496506 109.044077,103.505266 C109.002563,103.51593 108.959527,103.52469 108.919156,103.53802 C108.892496,103.545637 108.867359,103.557444 108.840318,103.566584 L108.840318,101.96127 C108.840318,95.5236351 114.077109,90.2883677 120.51322,90.2883677 L121.691212,90.2883677 C128.128847,90.2883677 133.364114,95.5236351 133.364114,101.96127 L133.364114,103.54716 C133.318031,103.532307 133.270423,103.5205 133.222816,103.508313 C133.200346,103.5026 133.178256,103.494983 133.155785,103.488889 C129.720831,102.708131 128.598825,98.1245111 128.590065,98.0902339 C128.375643,97.1468499 127.628781,96.4148417 126.681208,96.2213661 C125.732111,96.0267479 124.75902,96.406082 124.192304,97.1914102 C119.732081,103.356732 109.788273,103.427952 109.658781,103.427952 L109.658781,103.427952 Z M123.792022,127.434163 L123.792022,128.799918 L121.047182,131.647209 L118.467634,129.135834 L118.467634,127.434163 C118.973413,127.4951 119.485286,127.529377 120.007441,127.529377 L122.253739,127.529377 C122.774371,127.529377 123.286244,127.4951 123.792022,127.434163 L123.792022,127.434163 Z M122.252216,122.603366 L120.005918,122.603366 C115.65424,122.603366 112.113408,119.062534 112.113408,114.710856 L112.113408,108.193241 C115.322513,107.845137 121.005669,106.723512 125.384007,103.066518 C126.364334,104.749147 127.88167,106.568503 130.146249,107.630715 L130.146249,114.710856 C130.146249,119.062534 126.605417,122.603366 122.252216,122.603366 L122.252216,122.603366 Z M131.146,128.148271 L128.718034,127.17518 L128.718034,125.773624 C131.400413,124.19954 133.463899,121.679406 134.442703,118.672917 C138.026572,118.388797 140.856343,115.389544 140.856343,111.734074 C140.856343,109.56052 139.855069,107.617385 138.290126,106.338084 L138.290126,101.96127 C138.290126,93.5214672 131.956846,86.5365403 123.793546,85.4994653 C123.885713,83.8301668 123.951221,82.1475383 123.982451,80.4622438 L151.027905,80.4622438 C150.435672,98.2924693 143.431702,115.133608 131.146,128.148271 L131.146,128.148271 Z M138.597858,131.13686 L136.034687,130.108925 C148.924048,115.771544 156,97.3551789 156,78 C156,62.1647062 151.21224,46.9288822 142.489841,34.1210248 C142.384344,33.9126957 142.253329,33.7253138 142.099843,33.5615451 C138.279462,28.0539646 133.731642,23.0030322 128.511228,18.5622336 C127.474153,17.681691 125.921016,17.8066123 125.03895,18.8436873 C124.158027,19.878858 124.282948,21.4335184 125.318499,22.3159653 C129.506409,25.8773639 133.234623,29.8584675 136.467341,34.168632 C131.253021,36.2066006 124.995532,37.9326468 118.009463,39.295355 C116.079658,33.5497385 113.709201,28.1910733 110.923228,23.3572297 C107.16683,16.8426619 102.846383,11.5952071 98.1393646,7.73597785 C105.466301,9.83069419 112.446658,13.0771236 118.852681,17.4048076 C119.9804,18.1649992 121.511448,17.8705963 122.273163,16.7428772 C123.034878,15.6151581 122.738571,14.0841109 121.611232,13.3223959 C108.710827,4.60761422 93.6300116,0 78,0 C57.1644279,0 37.5784493,8.11264593 22.8453572,22.8453572 C8.11264593,37.5784493 0,57.1659513 0,78 C0,97.3803155 7.0847115,115.798585 19.9950196,130.141679 L17.4642214,131.13267 C16.5315013,131.47011 8.60661813,134.631608 8.60661813,144.707956 L8.60661813,153.533186 C8.60661813,154.894371 9.70881978,156 11.0700045,156 L47.3261166,156 C47.4449441,156 47.5611057,155.987813 47.6742203,155.971436 C47.7888585,155.987813 47.9046391,156 48.0238475,156 L58.0464939,156 C59.4061552,156 60.5087378,154.897417 60.5087378,153.536233 C60.5087378,152.175048 59.4061552,151.072465 58.0464939,151.072465 L50.4872339,151.072465 L50.4872339,142.494412 C50.4872339,133.444475 57.5959395,130.840933 57.8827252,130.739625 C57.9215726,130.726295 57.9588967,130.712965 57.9958399,130.698112 L69.9913282,126.001377 C70.0168456,126.028037 70.0419822,126.057744 70.0690231,126.084785 L76.4438162,132.294286 C76.9050346,132.742174 77.5208812,132.992017 78.1622453,132.992017 L78.2007119,132.992017 C78.8569294,132.981733 79.4815357,132.710944 79.9355179,132.237919 L86.0574216,125.886739 L98.0350096,130.690495 C98.0795699,130.708395 98.1081342,130.720202 98.1526946,130.733912 C98.4547146,130.840933 105.564563,133.444475 105.564563,142.494412 L105.564563,151.072465 L65.7440052,151.072465 C64.3843438,151.072465 63.2817613,152.176191 63.2817613,153.536233 C63.2817613,154.897417 64.3843438,156 65.7440052,156 L144.981792,156 C146.341453,156 147.444036,154.879517 147.444036,153.518332 L147.444036,144.707956 C147.445559,134.670456 139.579709,131.494104 138.597858,131.13686 L138.597858,131.13686 Z" id="Professional-icon"></path>
            </g>
        </g>
    </g>
</svg>